<?xml version="1.0" encoding="UTF-8"?>
<svg version="1.1" xmlns="http://www.w3.org/2000/svg" width="1024" height="1024">
<path d="M0 0 C337.92 0 675.84 0 1024 0 C1024 337.92 1024 675.84 1024 1024 C686.08 1024 348.16 1024 0 1024 C0 686.08 0 348.16 0 0 Z " fill="#F55133" transform="translate(0,0)"/>
<path d="M0 0 C0.66 0 1.32 0 2 0 C2.4021875 1.53140625 2.4021875 1.53140625 2.8125 3.09375 C15.91162866 52.10928884 37.76703829 88.99729597 75.91333008 122.18066406 C84.47424452 129.64479586 92.62137303 137.43503978 100.65014648 145.46484375 C102.5575894 147.37009504 104.47291467 149.26717613 106.38867188 151.1640625 C113.39014495 158.13345486 119.92728266 165.19445072 126 173 C126.90381905 174.11940199 127.80857484 175.23804925 128.71484375 176.35546875 C138.86693578 189.29091114 147.04768743 203.1126885 154 218 C154.52207031 219.1034375 155.04414062 220.206875 155.58203125 221.34375 C163.31271052 238.47770933 168.11567908 256.46814407 171 275 C171.11714355 275.71929688 171.23428711 276.43859375 171.35498047 277.1796875 C178.62384102 322.97458904 167.91002984 369.30103298 141.2109375 406.98046875 C137.94199849 411.44493846 134.57968202 415.78015586 131 420 C130.19046875 420.95648437 129.3809375 421.91296875 128.546875 422.8984375 C109.10904213 445.27745 82.55954722 457.68046586 54 464 C53.28247559 464.16516113 52.56495117 464.33032227 51.82568359 464.50048828 C10.02411553 473.78226011 -34.18842507 463.89102273 -70.16455078 441.66259766 C-78.90412215 436.02087088 -86.53034729 429.19802897 -94 422 C-95.24330078 420.86884766 -95.24330078 420.86884766 -96.51171875 419.71484375 C-119.88628752 397.77060286 -133.43289349 366.32808596 -138 335 C-138.25366333 333.60865845 -138.25366333 333.60865845 -138.51245117 332.18920898 C-143.45103762 299.88437435 -134.65786121 265.233081 -119 237 C-116.57918091 239.97654171 -114.79783362 243.11737321 -112.99438477 246.48217773 C-103.15381074 264.77040703 -89.55950722 279.26193819 -69.640625 286.1640625 C-59.02050376 288.93565512 -47.53083956 289.35598184 -37 286 C-35.82050781 285.63261719 -35.82050781 285.63261719 -34.6171875 285.2578125 C-22.74890569 281.05368759 -14.55838202 273.60695041 -8 263 C-7.50628906 262.20851563 -7.01257813 261.41703125 -6.50390625 260.6015625 C7.50662215 235.57385302 -1.49808553 202.01744085 -8.72460938 176.35351562 C-11.34894239 167.29369609 -14.23160233 158.30929896 -17.0625 149.3125 C-30.1905933 107.58741635 -39.77222541 68.98448112 -19.05883789 27.89550781 C-15.32835489 20.7983576 -10.89049209 14.34551453 -6 8 C-5.41734375 7.19046875 -4.8346875 6.3809375 -4.234375 5.546875 C-3.70328125 4.80953125 -3.1721875 4.0721875 -2.625 3.3125 C-2.16351563 2.66925781 -1.70203125 2.02601563 -1.2265625 1.36328125 C-0.82179688 0.91339844 -0.41703125 0.46351563 0 0 Z " fill="#F45034" transform="translate(496,281)"/>
<path d="M0 0 C5.89560199 3.49684892 9.76749607 8.56736156 12 15 C12.93199718 18.95089575 13.21430471 22.76890734 13.39453125 26.8203125 C13.46032192 28.16476397 13.52717586 29.50916373 13.5949707 30.85351562 C13.64725327 31.90019409 13.64725327 31.90019409 13.70059204 32.96801758 C14.37410214 45.94966302 15.57074565 58.42094145 19 71 C19.31324219 72.26070313 19.62648438 73.52140625 19.94921875 74.8203125 C24.72413056 92.10939838 33.13579893 109.71832209 44 124 C44.73605469 125.02738281 45.47210937 126.05476563 46.23046875 127.11328125 C56.56216069 141.19240044 69.46256418 153.97888736 83.20703125 164.71875 C94.11601346 173.62902358 104.00822902 183.90742936 114 193.8125 C114.85964355 194.6590918 115.71928711 195.50568359 116.60498047 196.37792969 C122.50285145 202.26780123 127.82837946 208.46705298 133 215 C133.48307617 215.59820557 133.96615234 216.19641113 134.46386719 216.81274414 C174.44887714 266.39255065 197.31754718 333.32159294 191.50390625 397.1796875 C188.54498471 424.71459145 181.07159923 451.08471513 169 476 C168.65743164 476.7110791 168.31486328 477.4221582 167.96191406 478.15478516 C159.38107018 495.72832143 148.2391759 510.77785315 134.421875 524.57421875 C132.9599655 526.03848617 131.51529821 527.52067965 130.10546875 529.03515625 C96.37806022 564.68592005 41.91473194 581.63985155 -5.88671875 583.1796875 C-33.87490491 583.75635947 -62.44114313 577.2652223 -88 566 C-89.19931152 565.47212891 -89.19931152 565.47212891 -90.42285156 564.93359375 C-113.28156911 554.74345899 -132.89282194 541.23639439 -151 524 C-151.75667969 523.30777344 -152.51335937 522.61554687 -153.29296875 521.90234375 C-179.05257137 497.55036969 -196.64749074 461.32366519 -204 427 C-204.41185547 425.22689453 -204.41185547 425.22689453 -204.83203125 423.41796875 C-216.24711312 371.51589699 -205.37247239 317.68664737 -177.03173828 273.01733398 C-169.24688165 261.09386382 -160.85605918 249.51955265 -151.0546875 239.171875 C-149.29816445 237.31517003 -147.66371989 235.42718152 -146.0625 233.4375 C-143.50198216 230.41143346 -141.94395026 229.10434412 -137.9609375 228.6640625 C-130.68083489 228.58475855 -124.11286057 228.6278878 -118 233 C-110.75109441 240.79989129 -111.50879122 256.48779684 -110.5625 266.4375 C-108.31511191 291.38471537 -108.31511191 291.38471537 -95.125 312 C-90.40298876 315.75778375 -85.81926615 317.60530274 -79.875 318.4375 C-76.04130285 317.8541113 -73.9818665 316.4517569 -71 314 C-67.20199454 308.76137178 -66.80910965 304.19380638 -66.6875 297.8125 C-66.63142578 295.93498047 -66.63142578 295.93498047 -66.57421875 294.01953125 C-67.19852231 280.6914432 -72.28811833 267.58678578 -76.77124023 255.16604614 C-78.03279528 251.66739903 -79.27103943 248.16062727 -80.51126099 244.65437317 C-81.43558481 242.04243284 -82.36277035 239.43152335 -83.29052734 236.82080078 C-101.056821 186.76648872 -110.89364603 138.79316004 -87.88183594 88.55908203 C-79.24632432 70.63625413 -67.75927123 55.16567511 -55 40 C-54.19199951 39.03537842 -54.19199951 39.03537842 -53.36767578 38.05126953 C-18.16321445 -3.88517956 -18.16321445 -3.88517956 0 0 Z M-26 72 C-27.62051076 73.816565 -29.09756466 75.62507652 -30.5625 77.5625 C-31.00505127 78.14604248 -31.44760254 78.72958496 -31.90356445 79.33081055 C-51.81529627 106.09152515 -61.48342734 136.85370656 -56.61254883 170.21630859 C-53.3278796 190.22660491 -46.87467431 209.64535677 -40.72460938 228.92196655 C-17.44304329 301.99453688 -17.44304329 301.99453688 -31.71606445 330.97363281 C-39.21204008 345.2115615 -49.50103516 354.10275764 -65 359 C-80.66992935 362.61613754 -96.60091874 359.42594406 -110.2890625 351.421875 C-126.44865213 341.28946669 -135.57666938 325.59419083 -144 309 C-146.29736486 311.09535868 -147.61453995 312.92706816 -148.83203125 315.78125 C-149.15268555 316.53067871 -149.47333984 317.28010742 -149.80371094 318.05224609 C-150.13661133 318.86000488 -150.46951172 319.66776367 -150.8125 320.5 C-151.1621582 321.3451416 -151.51181641 322.1902832 -151.87207031 323.06103516 C-168.14057876 363.13802286 -170.16945497 405.03416593 -153.48779297 445.37939453 C-146.07231782 462.53109058 -135.85011172 477.42653763 -123 491 C-122.18015625 491.88429688 -121.3603125 492.76859375 -120.515625 493.6796875 C-109.05786418 505.64592883 -95.65639809 514.42112349 -81 522 C-80.08033447 522.47928955 -80.08033447 522.47928955 -79.14208984 522.96826172 C-46.93844091 539.51555702 -7.29900028 544.12519095 28 536 C28.77553223 535.82839355 29.55106445 535.65678711 30.35009766 535.47998047 C52.7331682 530.42515586 73.75570249 521.36700229 91 506 C92.25876953 504.93845703 92.25876953 504.93845703 93.54296875 503.85546875 C123.57946825 478.01010872 141.11442916 438.69372109 146 400 C146.19529297 398.54980469 146.19529297 398.54980469 146.39453125 397.0703125 C151.93360494 346.11083453 136.47408368 293.78765956 106.125 252.875 C105.6921167 252.29081299 105.2592334 251.70662598 104.81323242 251.10473633 C95.29695934 238.58225169 84.58878193 227.28636433 73.43505859 216.22924805 C71.23338095 214.04602022 69.04000468 211.85470156 66.84765625 209.66210938 C65.4249525 208.24431654 64.00179168 206.82698216 62.578125 205.41015625 C61.61377533 204.44747581 61.61377533 204.44747581 60.62994385 203.46534729 C56.24088366 199.1213529 51.67685793 195.0306294 47 191 C44.5152984 188.78231111 42.04350126 186.55123927 39.57421875 184.31640625 C37.87932414 182.79125829 36.17377944 181.27785023 34.45703125 179.77734375 C18.17111368 165.46088598 5.71872166 148.30061659 -4 129 C-4.38784668 128.23236328 -4.77569336 127.46472656 -5.17529297 126.67382812 C-13.82043535 109.26030024 -18.97354866 90.7157572 -24 72 C-24.66 72 -25.32 72 -26 72 Z " fill="#FEFDFD" transform="translate(522,209)"/>
<path d="M0 0 C1.485 0.99 1.485 0.99 3 2 C3.34057617 4.43017578 3.34057617 4.43017578 3.29296875 7.4453125 C3.28330078 8.52167969 3.27363281 9.59804688 3.26367188 10.70703125 C3.23853516 11.83496094 3.21339844 12.96289062 3.1875 14.125 C3.17396484 15.26066406 3.16042969 16.39632812 3.14648438 17.56640625 C3.11104319 20.37807387 3.06163517 23.18880417 3 26 C2.67 26 2.34 26 2 26 C0.55203128 17.26047454 -0.29211698 8.86088167 0 0 Z " fill="#F25942" transform="translate(666,571)"/>
<path d="M0 0 C0.66 0 1.32 0 2 0 C2 2.64 2 5.28 2 8 C-0.97 7.505 -0.97 7.505 -4 7 C-2.79618552 4.50638429 -1.54571278 2.31856917 0 0 Z " fill="#F74724" transform="translate(496,281)"/>
<path d="M0 0 C0 4.10746566 -1.63960436 5.19754861 -4.375 8.1875 C-5.18710937 9.08855469 -5.99921875 9.98960937 -6.8359375 10.91796875 C-9 13 -9 13 -11 13 C-11 11 -11 11 -8.875 8.75 C-7.451875 7.38875 -7.451875 7.38875 -6 6 C-4.89324444 4.89842831 -3.78904707 3.79428007 -2.6875 2.6875 C-1.800625 1.800625 -0.91375 0.91375 0 0 Z " fill="#EF3A27" transform="translate(666,723)"/>
<path d="M0 0 C0.33 0 0.66 0 1 0 C1.33 2.64 1.66 5.28 2 8 C2.33 8 2.66 8 3 8 C3 10.31 3 12.62 3 15 C2.34 15 1.68 15 1 15 C-0.44207941 12.11584117 -0.09394887 9.58278472 -0.0625 6.375 C-0.05347656 5.18648437 -0.04445313 3.99796875 -0.03515625 2.7734375 C-0.02355469 1.85820313 -0.01195312 0.94296875 0 0 Z " fill="#F95F39" transform="translate(311,592)"/>
<path d="M0 0 C4.92307692 4.18461538 4.92307692 4.18461538 5.3125 8.3125 C5.209375 9.199375 5.10625 10.08625 5 11 C0 4.63636364 0 4.63636364 0 0 Z " fill="#F53B19" transform="translate(548,300)"/>
</svg>
