<?xml version="1.0" encoding="UTF-8"?>
<svg xmlns="http://www.w3.org/2000/svg" xmlns:xlink="http://www.w3.org/1999/xlink" width="96px" height="96px" viewBox="0 0 96 96" version="1.1">
<g id="surface1">
<path style=" stroke:none;fill-rule:nonzero;fill:rgb(96.078432%,31.764707%,20%);fill-opacity:1;" d="M 0 0 C 31.679688 0 63.359375 0 96 0 C 96 31.679688 96 63.359375 96 96 C 64.320312 96 32.640625 96 0 96 C 0 64.320312 0 32.640625 0 0 Z M 0 0 "/>
<path style=" stroke:none;fill-rule:nonzero;fill:rgb(95.686275%,31.37255%,20.392157%);fill-opacity:1;" d="M 46.5 26.34375 C 46.5625 26.34375 46.625 26.34375 46.6875 26.34375 C 46.726562 26.488281 46.726562 26.488281 46.765625 26.632812 C 47.992188 31.230469 50.039062 34.6875 53.617188 37.796875 C 54.417969 38.496094 55.183594 39.226562 55.9375 39.980469 C 56.113281 40.160156 56.292969 40.335938 56.472656 40.515625 C 57.128906 41.167969 57.742188 41.832031 58.3125 42.5625 C 58.398438 42.667969 58.480469 42.773438 58.566406 42.878906 C 59.519531 44.089844 60.285156 45.386719 60.9375 46.78125 C 60.988281 46.882812 61.035156 46.988281 61.085938 47.09375 C 61.8125 48.699219 62.261719 50.386719 62.53125 52.125 C 62.542969 52.191406 62.554688 52.261719 62.566406 52.328125 C 63.246094 56.621094 62.242188 60.964844 59.738281 64.5 C 59.433594 64.917969 59.117188 65.324219 58.78125 65.71875 C 58.707031 65.808594 58.628906 65.898438 58.550781 65.992188 C 56.730469 68.089844 54.238281 69.25 51.5625 69.84375 C 51.496094 69.859375 51.429688 69.875 51.359375 69.890625 C 47.441406 70.761719 43.292969 69.832031 39.921875 67.75 C 39.101562 67.222656 38.386719 66.582031 37.6875 65.90625 C 37.570312 65.800781 37.570312 65.800781 37.453125 65.691406 C 35.261719 63.632812 33.992188 60.6875 33.5625 57.75 C 33.539062 57.621094 33.539062 57.621094 33.515625 57.488281 C 33.050781 54.457031 33.875 51.210938 35.34375 48.5625 C 35.570312 48.839844 35.738281 49.136719 35.90625 49.453125 C 36.828125 51.164062 38.105469 52.523438 39.972656 53.171875 C 40.96875 53.429688 42.042969 53.472656 43.03125 53.15625 C 43.140625 53.121094 43.140625 53.121094 43.253906 53.085938 C 44.367188 52.691406 45.136719 51.996094 45.75 51 C 45.796875 50.925781 45.84375 50.851562 45.890625 50.773438 C 47.203125 48.429688 46.359375 45.28125 45.683594 42.875 C 45.4375 42.027344 45.164062 41.183594 44.898438 40.34375 C 43.667969 36.429688 42.769531 32.8125 44.714844 28.957031 C 45.0625 28.292969 45.480469 27.6875 45.9375 27.09375 C 45.992188 27.019531 46.046875 26.941406 46.101562 26.863281 C 46.152344 26.792969 46.203125 26.726562 46.253906 26.65625 C 46.296875 26.59375 46.339844 26.535156 46.386719 26.472656 C 46.421875 26.429688 46.460938 26.386719 46.5 26.34375 Z M 46.5 26.34375 "/>
<path style=" stroke:none;fill-rule:nonzero;fill:rgb(99.607843%,99.215686%,99.215686%);fill-opacity:1;" d="M 48.9375 19.59375 C 49.488281 19.921875 49.851562 20.398438 50.0625 21 C 50.148438 21.371094 50.175781 21.726562 50.191406 22.109375 C 50.199219 22.234375 50.207031 22.359375 50.210938 22.484375 C 50.21875 22.585938 50.21875 22.585938 50.222656 22.683594 C 50.285156 23.902344 50.398438 25.070312 50.71875 26.25 C 50.75 26.367188 50.777344 26.488281 50.808594 26.609375 C 51.253906 28.230469 52.042969 29.878906 53.0625 31.21875 C 53.132812 31.316406 53.199219 31.410156 53.273438 31.511719 C 54.238281 32.832031 55.449219 34.027344 56.738281 35.035156 C 57.761719 35.871094 58.6875 36.835938 59.625 37.765625 C 59.707031 37.84375 59.785156 37.921875 59.871094 38.003906 C 60.421875 38.554688 60.921875 39.136719 61.40625 39.75 C 61.453125 39.804688 61.496094 39.863281 61.542969 39.921875 C 65.292969 44.566406 67.4375 50.84375 66.890625 56.828125 C 66.613281 59.410156 65.914062 61.882812 64.78125 64.21875 C 64.75 64.285156 64.71875 64.351562 64.683594 64.421875 C 63.878906 66.066406 62.835938 67.480469 61.539062 68.773438 C 61.402344 68.910156 61.265625 69.046875 61.136719 69.191406 C 57.972656 72.53125 52.867188 74.121094 48.386719 74.265625 C 45.761719 74.320312 43.082031 73.710938 40.6875 72.65625 C 40.574219 72.605469 40.574219 72.605469 40.460938 72.554688 C 38.316406 71.601562 36.480469 70.335938 34.78125 68.71875 C 34.710938 68.652344 34.640625 68.589844 34.566406 68.523438 C 32.152344 66.238281 30.5 62.84375 29.8125 59.625 C 29.773438 59.457031 29.773438 59.457031 29.734375 59.289062 C 28.664062 54.421875 29.683594 49.375 32.339844 45.1875 C 33.070312 44.070312 33.855469 42.984375 34.777344 42.015625 C 34.941406 41.84375 35.09375 41.664062 35.242188 41.476562 C 35.484375 41.195312 35.628906 41.074219 36.003906 41.03125 C 36.6875 41.023438 37.300781 41.027344 37.875 41.4375 C 38.554688 42.167969 38.484375 43.640625 38.570312 44.570312 C 38.78125 46.910156 38.78125 46.910156 40.019531 48.84375 C 40.460938 49.195312 40.890625 49.371094 41.449219 49.445312 C 41.808594 49.390625 42 49.261719 42.28125 49.03125 C 42.636719 48.539062 42.675781 48.113281 42.6875 47.515625 C 42.691406 47.335938 42.691406 47.335938 42.695312 47.15625 C 42.636719 45.910156 42.160156 44.679688 41.738281 43.515625 C 41.621094 43.1875 41.503906 42.859375 41.390625 42.53125 C 41.304688 42.285156 41.214844 42.039062 41.128906 41.796875 C 39.464844 37.101562 38.542969 32.605469 40.699219 27.894531 C 41.507812 26.214844 42.585938 24.765625 43.78125 23.34375 C 43.855469 23.253906 43.855469 23.253906 43.933594 23.160156 C 47.234375 19.230469 47.234375 19.230469 48.9375 19.59375 Z M 46.5 26.34375 C 46.347656 26.515625 46.210938 26.683594 46.070312 26.867188 C 46.03125 26.921875 45.988281 26.976562 45.945312 27.03125 C 44.078125 29.539062 43.171875 32.421875 43.628906 35.550781 C 43.9375 37.425781 44.542969 39.246094 45.121094 41.054688 C 47.300781 47.90625 47.300781 47.90625 45.964844 50.621094 C 45.261719 51.957031 44.296875 52.789062 42.84375 53.25 C 41.375 53.589844 39.882812 53.289062 38.597656 52.539062 C 37.082031 51.589844 36.226562 50.117188 35.4375 48.5625 C 35.222656 48.757812 35.097656 48.929688 34.984375 49.199219 C 34.953125 49.269531 34.925781 49.339844 34.894531 49.410156 C 34.863281 49.488281 34.832031 49.5625 34.796875 49.640625 C 34.765625 49.71875 34.734375 49.800781 34.699219 49.878906 C 33.175781 53.636719 32.984375 57.566406 34.546875 61.347656 C 35.242188 62.957031 36.203125 64.351562 37.40625 65.625 C 37.484375 65.707031 37.558594 65.789062 37.640625 65.875 C 38.714844 67 39.96875 67.820312 41.34375 68.53125 C 41.429688 68.578125 41.429688 68.578125 41.519531 68.621094 C 44.535156 70.171875 48.253906 70.605469 51.5625 69.84375 C 51.636719 69.828125 51.707031 69.8125 51.78125 69.796875 C 53.882812 69.320312 55.851562 68.472656 57.46875 67.03125 C 57.585938 66.933594 57.585938 66.933594 57.707031 66.832031 C 60.523438 64.40625 62.167969 60.722656 62.625 57.09375 C 62.644531 56.957031 62.644531 56.957031 62.660156 56.820312 C 63.179688 52.042969 61.730469 47.136719 58.886719 43.300781 C 58.847656 43.246094 58.804688 43.191406 58.765625 43.136719 C 57.871094 41.960938 56.867188 40.902344 55.820312 39.867188 C 55.617188 39.660156 55.410156 39.457031 55.203125 39.25 C 55.070312 39.117188 54.9375 38.984375 54.804688 38.851562 C 54.714844 38.761719 54.714844 38.761719 54.621094 38.667969 C 54.210938 38.261719 53.78125 37.878906 53.34375 37.5 C 53.109375 37.292969 52.878906 37.082031 52.648438 36.875 C 52.488281 36.730469 52.328125 36.589844 52.167969 36.449219 C 50.640625 35.105469 49.472656 33.496094 48.5625 31.6875 C 48.527344 31.617188 48.488281 31.542969 48.453125 31.46875 C 47.640625 29.835938 47.160156 28.097656 46.6875 26.34375 C 46.625 26.34375 46.5625 26.34375 46.5 26.34375 Z M 46.5 26.34375 "/>
<path style=" stroke:none;fill-rule:nonzero;fill:rgb(94.901961%,34.901962%,25.882354%);fill-opacity:1;" d="M 62.4375 53.53125 C 62.578125 53.625 62.578125 53.625 62.71875 53.71875 C 62.75 53.945312 62.75 53.945312 62.746094 54.230469 C 62.746094 54.332031 62.746094 54.429688 62.742188 54.535156 C 62.742188 54.640625 62.738281 54.746094 62.734375 54.855469 C 62.734375 54.960938 62.734375 55.070312 62.734375 55.179688 C 62.730469 55.441406 62.722656 55.707031 62.71875 55.96875 C 62.6875 55.96875 62.65625 55.96875 62.625 55.96875 C 62.488281 55.148438 62.410156 54.363281 62.4375 53.53125 Z M 62.4375 53.53125 "/>
<path style=" stroke:none;fill-rule:nonzero;fill:rgb(96.862745%,27.843139%,14.117648%);fill-opacity:1;" d="M 46.5 26.34375 C 46.5625 26.34375 46.625 26.34375 46.6875 26.34375 C 46.6875 26.589844 46.6875 26.839844 46.6875 27.09375 C 46.410156 27.046875 46.410156 27.046875 46.125 27 C 46.238281 26.765625 46.355469 26.5625 46.5 26.34375 Z M 46.5 26.34375 "/>
<path style=" stroke:none;fill-rule:nonzero;fill:rgb(93.725491%,22.745098%,15.294118%);fill-opacity:1;" d="M 62.4375 67.78125 C 62.4375 68.167969 62.285156 68.269531 62.027344 68.546875 C 61.953125 68.632812 61.875 68.71875 61.796875 68.804688 C 61.59375 69 61.59375 69 61.40625 69 C 61.40625 68.8125 61.40625 68.8125 61.605469 68.601562 C 61.738281 68.472656 61.738281 68.472656 61.875 68.34375 C 61.980469 68.242188 62.082031 68.136719 62.1875 68.03125 C 62.269531 67.949219 62.351562 67.867188 62.4375 67.78125 Z M 62.4375 67.78125 "/>
<path style=" stroke:none;fill-rule:nonzero;fill:rgb(97.647059%,37.254903%,22.352941%);fill-opacity:1;" d="M 29.15625 55.5 C 29.1875 55.5 29.21875 55.5 29.25 55.5 C 29.28125 55.746094 29.3125 55.996094 29.34375 56.25 C 29.375 56.25 29.40625 56.25 29.4375 56.25 C 29.4375 56.464844 29.4375 56.683594 29.4375 56.90625 C 29.375 56.90625 29.3125 56.90625 29.25 56.90625 C 29.113281 56.636719 29.148438 56.398438 29.148438 56.097656 C 29.152344 55.984375 29.152344 55.875 29.152344 55.761719 C 29.152344 55.675781 29.15625 55.589844 29.15625 55.5 Z M 29.15625 55.5 "/>
<path style=" stroke:none;fill-rule:nonzero;fill:rgb(96.078432%,23.137255%,9.803922%);fill-opacity:1;" d="M 51.375 28.125 C 51.835938 28.515625 51.835938 28.515625 51.875 28.90625 C 51.863281 28.988281 51.855469 29.070312 51.84375 29.15625 C 51.375 28.558594 51.375 28.558594 51.375 28.125 Z M 51.375 28.125 "/>
</g>
</svg>
